<svg width="47" height="47" viewBox="0 0 47 47" fill="none" xmlns="http://www.w3.org/2000/svg">
<path d="M23.5718 0.0357666C36.511 0.0358419 47.0005 10.5253 47.0005 23.4645C47.0004 36.4036 36.5109 46.8931 23.5718 46.8932C10.6326 46.8932 0.143142 36.4037 0.143066 23.4645C0.143066 10.5252 10.6325 0.0357666 23.5718 0.0357666Z" fill="#C7F7C1"/>
<path d="M23.5718 0.0357666C36.511 0.0358419 47.0005 10.5253 47.0005 23.4645C47.0004 36.4036 36.5109 46.8931 23.5718 46.8932C10.6326 46.8932 0.143142 36.4037 0.143066 23.4645C0.143066 10.5252 10.6325 0.0357666 23.5718 0.0357666Z" stroke="#E5E7EB"/>
<path d="M34.5532 35.1786H12.5894V11.7499H34.5532V35.1786Z" stroke="#E5E7EB"/>
<g clip-path="url(#clip0_109_197)">
<path d="M17.5313 30.4197C14.8029 30.4197 12.5894 28.2062 12.5894 25.4778C12.5894 23.3225 13.969 21.4899 15.8909 20.8138C15.8874 20.7211 15.884 20.6285 15.884 20.5358C15.884 17.502 18.3413 15.0447 21.3751 15.0447C23.4102 15.0447 25.1845 16.1498 26.1351 17.7971C26.6568 17.4471 27.2883 17.2412 27.9644 17.2412C29.7833 17.2412 31.259 18.7169 31.259 20.5358C31.259 20.9545 31.1801 21.3526 31.0394 21.7233C33.0436 22.1282 34.5536 23.9025 34.5536 26.0269C34.5536 28.4532 32.5872 30.4197 30.1608 30.4197H17.5313ZM20.2425 22.9725C19.9199 23.2951 19.9199 23.8167 20.2425 24.1359C20.5651 24.4551 21.0868 24.4585 21.406 24.1359L22.7444 22.7974V27.3996C22.7444 27.8561 23.1116 28.2233 23.5681 28.2233C24.0245 28.2233 24.3917 27.8561 24.3917 27.3996V22.7974L25.7302 24.1359C26.0528 24.4585 26.5744 24.4585 26.8936 24.1359C27.2128 23.8133 27.2162 23.2916 26.8936 22.9725L24.1481 20.2269C23.8255 19.9043 23.3038 19.9043 22.9846 20.2269L20.2391 22.9725H20.2425Z" fill="#00894E"/>
</g>
<defs>
<clipPath id="clip0_109_197">
<path d="M12.5894 13.9466H34.5536V31.518H12.5894V13.9466Z" fill="white"/>
</clipPath>
</defs>
</svg>
